<svg xmlns="http://www.w3.org/2000/svg" viewBox="0 0 32 32" fill="#78879688" xmlns:v="https://vecta.io/nano"><path d="M11 5h12v1H11z"/><path d="M9 6h2v1H9z"/><path d="M11 6h1v1h-1z"/><path d="M12 6h4v1h-4z"/><path d="M16 6h3v1h-3z"/><path d="M19 6h3v1h-3z"/><path d="M22 6h2v1h-2zM9 7h1v1H9z"/><path d="M10 7h1v1h-1z"/><path d="M11 7h7v1h-7z"/><path d="M18 7h2v1h-2z"/><path d="M20 7h3v1h-3z"/><path d="M23 7h1v1h-1zM9 8h1v1H9z"/><path d="M10 8h2v1h-2z"/><path d="M12 8h1v1h-1z"/><path d="M13 8h5v1h-5z"/><path d="M18 8h1v1h-1z"/><path d="M19 8h1v1h-1z"/><path d="M20 8h1v1h-1z"/><path d="M21 8h2v1h-2z"/><path d="M23 8h1v1h-1zM9 9h1v1H9z"/><path d="M10 9h2v1h-2z"/><path d="M12 9h1v1h-1z"/><path d="M13 9h5v1h-5z"/><path d="M18 9h1v1h-1z"/><path d="M19 9h1v1h-1z"/><path d="M20 9h2v1h-2z"/><path d="M22 9h2v1h-2z"/><path d="M24 9h1v1h-1zM8 10h2v1H8z"/><path d="M10 10h1v1h-1z"/><path d="M11 10h1v1h-1z"/><path d="M12 10h1v1h-1z"/><path d="M13 10h1v1h-1z"/><path d="M14 10h4v1h-4z"/><path d="M18 10h1v1h-1z"/><path d="M19 10h1v1h-1z"/><path d="M20 10h1v1h-1z"/><path d="M21 10h1v1h-1z"/><path d="M22 10h2v1h-2z"/><path d="M24 10h1v1h-1zM8 11h1v1H8z"/><path d="M9 11h3v1H9z"/><path d="M12 11h1v1h-1z"/><path d="M13 11h6v1h-6z"/><path d="M19 11h1v1h-1z"/><path d="M20 11h3v1h-3z"/><path d="M23 11h1v1h-1z"/><path d="M24 11h1v1h-1zM8 12h1v1H8z"/><path d="M9 12h2v1H9z"/><path d="M11 12h1v1h-1z"/><path d="M12 12h1v1h-1z"/><path d="M13 12h1v1h-1z"/><path d="M14 12h4v1h-4z"/><path d="M18 12h1v1h-1z"/><path d="M19 12h1v1h-1z"/><path d="M20 12h1v1h-1z"/><path d="M21 12h1v1h-1z"/><path d="M22 12h2v1h-2z"/><path d="M24 12h1v1h-1zM8 13h1v1H8z"/><path d="M9 13h3v1H9z"/><path d="M12 13h1v1h-1z"/><path d="M13 13h1v1h-1z"/><path d="M14 13h5v1h-5z"/><path d="M19 13h1v1h-1z"/><path d="M20 13h4v1h-4z"/><path d="M24 13h1v1h-1zM8 14h1v1H8z"/><path d="M9 14h2v1H9z"/><path d="M11 14h1v1h-1z"/><path d="M12 14h1v1h-1z"/><path d="M13 14h1v1h-1z"/><path d="M14 14h5v1h-5z"/><path d="M19 14h1v1h-1z"/><path d="M20 14h4v1h-4z"/><path d="M24 14h1v1h-1zM8 15h1v1H8z"/><path d="M9 15h5v1H9z"/><path d="M14 15h6v1h-6z"/><path d="M20 15h1v1h-1z"/><path d="M21 15h3v1h-3z"/><path d="M24 15h1v1h-1zM8 16h1v1H8z"/><path d="M9 16h4v1H9z"/><path d="M13 16h1v1h-1z"/><path d="M14 16h1v1h-1z"/><path d="M15 16h1v1h-1z"/><path d="M16 16h1v1h-1z"/><path d="M17 16h1v1h-1z"/><path d="M18 16h1v1h-1z"/><path d="M19 16h1v1h-1z"/><path d="M20 16h2v1h-2z"/><path d="M22 16h2v1h-2z"/><path d="M24 16h1v1h-1zM8 17h1v1H8z"/><path d="M9 17h4v1H9z"/><path d="M13 17h1v1h-1z"/><path d="M14 17h5v1h-5z"/><path d="M19 17h1v1h-1z"/><path d="M20 17h1v1h-1z"/><path d="M21 17h3v1h-3z"/><path d="M24 17h1v1h-1zM8 18h1v1H8z"/><path d="M9 18h4v1H9z"/><path d="M13 18h1v1h-1z"/><path d="M14 18h1v1h-1z"/><path d="M15 18h1v1h-1z"/><path d="M16 18h1v1h-1z"/><path d="M17 18h1v1h-1z"/><path d="M18 18h1v1h-1z"/><path d="M19 18h1v1h-1z"/><path d="M20 18h3v1h-3z"/><path d="M23 18h1v1h-1z"/><path d="M24 18h1v1h-1zM8 19h1v1H8z"/><path d="M9 19h5v1H9z"/><path d="M14 19h1v1h-1z"/><path d="M15 19h1v1h-1z"/><path d="M16 19h1v1h-1z"/><path d="M17 19h1v1h-1z"/><path d="M18 19h1v1h-1z"/><path d="M19 19h5v1h-5z"/><path d="M24 19h1v1h-1zM9 20h1v1H9z"/><path d="M10 20h3v1h-3z"/><path d="M13 20h2v1h-2z"/><path d="M15 20h1v1h-1z"/><path d="M16 20h1v1h-1z"/><path d="M17 20h1v1h-1z"/><path d="M18 20h6v1h-6z"/><path d="M24 20h1v1h-1zM9 21h1v1H9z"/><path d="M10 21h5v1h-5z"/><path d="M15 21h1v1h-1z"/><path d="M16 21h1v1h-1z"/><path d="M17 21h6v1h-6z"/><path d="M23 21h2v1h-2zM9 22h1v1H9z"/><path d="M10 22h5v1h-5z"/><path d="M15 22h2v1h-2z"/><path d="M17 22h2v1h-2z"/><path d="M19 22h4v1h-4z"/><path d="M23 22h1v1h-1zM9 23h1v1H9z"/><path d="M10 23h1v1h-1z"/><path d="M11 23h4v1h-4z"/><path d="M15 23h1v1h-1z"/><path d="M16 23h1v1h-1z"/><path d="M17 23h6v1h-6z"/><path d="M23 23h1v1h-1zM9 24h1v1H9z"/><path d="M10 24h1v1h-1z"/><path d="M11 24h1v1h-1z"/><path d="M12 24h3v1h-3z"/><path d="M15 24h3v1h-3z"/><path d="M18 24h4v1h-4z"/><path d="M22 24h1v1h-1z"/><path d="M23 24h1v1h-1zM9 25h1v1H9z"/><path d="M10 25h2v1h-2z"/><path d="M12 25h1v1h-1z"/><path d="M13 25h2v1h-2z"/><path d="M15 25h3v1h-3z"/><path d="M18 25h4v1h-4z"/><path d="M22 25h1v1h-1z"/><path d="M23 25h1v1h-1zM9 26h3v1H9z"/><path d="M12 26h1v1h-1z"/><path d="M13 26h2v1h-2z"/><path d="M15 26h2v1h-2z"/><path d="M17 26h3v1h-3z"/><path d="M20 26h2v1h-2z"/><path d="M22 26h1v1h-1z"/><path d="M11 27h11v1H11z"/></svg>
